<!DOCTYPE svg PUBLIC "-//W3C//DTD SVG 20010904//EN" "http://www.w3.org/TR/2001/REC-SVG-20010904/DTD/svg10.dtd">
<svg version="1.0" xmlns="http://www.w3.org/2000/svg" width="400px" height="400px" viewBox="0 0 4000 4000" preserveAspectRatio="xMidYMid meet">
<g id="layer101" fill="#5f3f7b" stroke="none">
<path d="M1735 3919 c-27 -5 -77 -14 -110 -20 -411 -79 -800 -302 -1080 -620 -71 -81 -85 -99 -154 -202 -147 -220 -243 -451 -292 -699 -19 -97 -39 -292 -39 -378 0 -187 43 -441 106 -626 193 -567 641 -1015 1208 -1208 185 -63 439 -106 626 -106 86 0 281 20 378 39 248 49 479 145 699 292 103 69 121 83 202 154 318 279 534 657 620 1080 43 214 43 536 0 750 -66 327 -223 651 -432 889 -312 358 -704 572 -1187 652 -95 15 -462 18 -545 3z"/>
</g>
<g id="layer102" fill="#9265b8" stroke="none">
<path d="M1819 3926 c-2 -2 -33 -7 -69 -10 -36 -4 -83 -11 -105 -16 -22 -5 -57 -11 -78 -14 -126 -19 -494 -175 -620 -263 -95 -66 -191 -138 -217 -163 -15 -14 -53 -50 -86 -80 -54 -51 -102 -102 -162 -174 -42 -50 -159 -230 -199 -306 -37 -72 -100 -220 -128 -305 -53 -157 -95 -422 -95 -595 0 -261 73 -588 183 -820 231 -484 633 -845 1131 -1014 185 -63 439 -106 626 -106 173 0 438 42 595 95 85 28 233 91 305 128 76 40 256 157 306 199 243 203 391 390 524 662 67 136 144 346 156 423 3 21 9 56 14 78 32 147 35 547 5 689 -18 87 6 102 -251 -155 l-234 -234 0 148 0 147 -885 0 -885 0 0 390 0 390 388 -2 387 -3 3 -117 3 -118 -271 0 -270 0 0 -150 0 -150 420 0 420 0 0 415 0 415 -687 0 -688 0 310 310 310 310 -76 0 c-42 0 -78 -2 -80 -4z m-469 -1306 l0 -380 -375 0 c-206 0 -375 3 -375 7 0 7 741 753 747 753 2 0 3 -171 3 -380z m200 -875 l195 -195 -190 -190 -190 -190 -242 0 -243 0 0 385 0 385 238 0 237 0 195 -195z m500 60 c0 -74 -1 -135 -3 -135 -1 0 -63 61 -137 135 l-135 135 138 0 137 0 0 -135z m1360 132 c0 -1 -238 -241 -530 -532 l-530 -530 0 533 0 532 530 0 c292 0 530 -1 530 -3z"/>
</g>
<g id="layer103" fill="#fbfafb" stroke="none">
<path d="M1353 2773 l2 -538 -382 -3 -383 -2 0 -680 0 -680 443 0 443 0 287 288 287 287 0 -287 0 -288 145 0 145 0 0 535 0 535 540 0 540 0 0 143 0 144 -527 6 c-289 4 -688 7 -885 7 l-358 0 0 390 0 390 390 0 390 0 0 -125 0 -125 -270 0 -270 0 0 -145 0 -145 415 0 415 0 0 415 0 415 -684 0 -685 0 2 -537z m697 -965 l0 -143 -135 135 c-74 74 -135 138 -135 142 0 5 61 8 135 8 l135 0 0 -142z m-500 -63 l195 -195 -195 -195 -195 -195 -237 0 -238 0 0 390 0 390 238 0 237 0 195 -195z"/>
<path d="M64 2000 c0 -69 1 -97 3 -62 2 34 2 90 0 125 -2 34 -3 6 -3 -63z"/>
<path d="M1938 63 c34 -2 90 -2 125 0 34 2 6 3 -63 3 -69 0 -97 -1 -62 -3z"/>
</g>


</svg>